# xmcd CD database file
#
# Track frame offsets:
#	150
#	21525
#	47180
#	64700
#	82058
#	96390
#	114366
#	137848
#	160872
#	175124
#	193497
#	213522
#
# Disc length: 3073 seconds
#
# Revision: 0
# Processed by: cddbd v1.5.2PL0 Copyright (c) Steve Scherf et al.
# Submitted via: CDex 1.51
#
DISCID=b30bff0c
DTITLE=EDDIE TAYLOR JR. - Chicago Blues Session Volume 69-I Go To Make This Money, Baby
DYEAR=0000
DGENRE=Blues
TTITLE0=I Got To Make This Money, Baby
TTITLE1=Salute To Eddie Taylor
TTITLE2=Train Fare Blues
TTITLE3=My Little Machine
TTITLE4=Mama, He Treats Your Daughter Mean
TTITLE5=That's All Right
TTITLE6=Goodbye Willie Kent
TTITLE7=I'm In The Mood
TTITLE8=Take Your Hand Down 
TTITLE9=Just A Little Bit
TTITLE10=Biggest Blues Fan
TTITLE11=Whiskey Headed Woman
EXTD=YEAR: 0000
EXTT0=
EXTT1=
EXTT2=
EXTT3=
EXTT4=
EXTT5=
EXTT6=
EXTT7=
EXTT8=
EXTT9=
EXTT10=
EXTT11=
PLAYORDER=
